<?xml version="1.0" encoding="UTF-8" standalone="no"?><!DOCTYPE svg PUBLIC "-//W3C//DTD SVG 1.1//EN" "http://www.w3.org/Graphics/SVG/1.1/DTD/svg11.dtd"><svg width="100%" height="100%" viewBox="0 0 171 269" version="1.1" xmlns="http://www.w3.org/2000/svg" xmlns:xlink="http://www.w3.org/1999/xlink" xml:space="preserve" xmlns:serif="http://www.serif.com/" style="fill-rule:evenodd;clip-rule:evenodd;stroke-linejoin:round;stroke-miterlimit:1.41421;"><g><g><path d="M141.395,209.617c-3.1,-16.9 -5.9,-33.9 -7.7,-51.1c-0.2,-1.9 -0.5,-3.9 -0.8,-6.2c-1.5,3.5 -2.8,6.7 -4.1,9.8c-3.7,8.4 -8.2,16.2 -14.2,23.2c-2.3,2.6 -4.7,5 -7.6,6.8c-3.6,2.3 -7.5,2.9 -11.5,1.1c-1.8,-0.8 -3.5,-1.8 -5.3,-2.8c-9.1,-5.4 -18.3,-10.7 -27.9,-15.1c-3.6,-1.7 -7.2,-3.3 -10.7,-5.1c-4.4,-2.2 -8.4,-5.1 -12,-8.5c-0.9,-0.9 -1.9,-1.7 -3,-2.7c-0.4,1.3 -0.8,2.3 -1,3.4c-0.6,3 -1.2,6 -1.8,9c-1.7,7.4 -3.6,14.7 -5.1,22.2c-2.1,10.6 -3.9,21.2 -5.7,31.9c-0.8,4.8 -1.3,9.7 -1.3,14.5c0,7.8 3.4,14 10.7,17.5c6.7,3.3 13.7,5.3 21.2,5.5c3.5,0.1 6.9,0.5 10.4,0.7c0.9,0.1 1.7,0 2.6,0c0.2,-0.7 0.3,-1.3 0.5,-1.8c0.6,-2.7 0.1,-5.1 -2.2,-7c-1.1,-0.9 -2.1,-1.9 -3.2,-2.9c-1.2,-1.1 -2.3,-2.1 -3.4,-3.2c-0.6,-0.6 -0.7,-1.5 -0.3,-2.3c0.4,-0.8 1.1,-1.3 2,-1.1c0.5,0.1 1.1,0.3 1.5,0.7c2.6,2.4 5.3,4.8 7.8,7.3c0.8,0.7 1.4,1.8 1.7,2.8c0.5,1.6 1.3,1.9 2.8,2c4.4,0.2 8.8,0.3 13.1,0.8c6.2,0.6 12.3,0.5 18.1,-1.1c1.4,-2.1 2.6,-4.2 4.1,-6c2.3,-2.6 5.1,-4.7 8.1,-6.5c0.3,-0.2 0.6,-0.4 0.9,-0.5c1,-0.4 2,-0.1 2.5,0.8c0.6,0.9 0.5,1.7 -0.2,2.5c-0.5,0.5 -1.2,0.9 -1.8,1.4c-2.2,1.8 -4.5,3.4 -6.5,5.3c-2,1.9 -3.3,4.4 -3.1,7.3c0.1,1.5 0.4,1.9 1.9,2.2c0.9,0.2 1.9,0.3 2.9,0.3c6.6,-0.4 13,-1.6 19.3,-3.5c6.3,-1.9 9.8,-6.4 11.3,-12.7c1,-4.4 1,-8.8 0.7,-13.3c-0.6,-8.7 -2.1,-17.2 -3.7,-25.6Zm-27.2,12.4c-4.1,0.6 -8.1,1 -12.2,1.5c-0.7,0.1 -1.4,0.1 -2.1,0.1c-0.4,2.2 -0.7,4.5 -1.4,6.6c-0.7,2.4 -1.4,4.7 -2.5,6.9c-2.3,4.7 -6.2,7.3 -11.3,8.2c-5.1,0.9 -9.7,-0.2 -14.1,-2.9c-7,-4.4 -11.1,-10.8 -12.7,-18.8c-0.5,-2.7 -0.5,-5.4 -0.8,-8.4c-1.4,-0.2 -3.2,-0.4 -4.9,-0.7c-4,-0.6 -7.9,-1.5 -11.7,-2.9c-0.6,-0.2 -1.2,-0.4 -1.7,-0.8c-1.1,-0.7 -1.6,-1.7 -1.1,-2.7c0.4,-1 1.5,-1.5 2.7,-1.1c0.6,0.2 1.2,0.4 1.7,0.6c5.3,1.9 10.8,3 16.4,3.2c0.5,0 1.1,0 1.6,0c1.6,-0.2 2.2,-1.4 1.4,-2.8c-0.4,-0.7 -1,-1.3 -1.6,-1.9c-2.6,-2.7 -5.1,-5.3 -7.7,-8c-0.4,-0.4 -0.8,-0.9 -1.2,-1.4c-0.6,-0.9 -0.4,-1.9 0.4,-2.6c0.7,-0.7 1.8,-0.7 2.6,-0.1c0.5,0.4 1,0.9 1.5,1.4c1.9,2 3.7,4 5.8,6.1c0.9,-1.2 1.7,-2.2 2.4,-3.3c2,-2.8 4.1,-5.5 6.9,-7.5c1.5,-1 3.1,-2 4.8,-2.7c3.6,-1.7 7.2,-1.3 10.6,0.5c3.3,1.7 5.8,4.3 7.8,7.4c1,1.6 1.9,3.3 2.9,5c2.2,-0.7 4.4,-1.4 6.6,-2.1c0.7,-0.2 1.4,-0.5 2.2,-0.6c1.3,-0.2 2.3,0.4 2.7,1.4c0.4,1.2 -0.2,2.2 -1.5,2.7c-2.4,0.9 -4.8,1.8 -7.2,2.8c-1.7,0.7 -3.5,1.3 -5,2.3c-3.2,2.1 -6.3,4.4 -9.3,6.7c-0.9,0.7 -1.5,1.7 -2.3,2.6c2.1,1.8 4.5,2.1 6.7,2.3c6.4,0.6 12.7,0.4 19,-0.6c1.7,-0.3 3.4,-0.5 5.1,-0.5c1.5,-0.1 2.4,0.6 2.5,1.8c0.1,1.2 -0.5,2 -2,2.3Z" style="fill:#bfb49d;fill-rule:nonzero;"/><path d="M160.295,219.517c-3.9,-1.1 -7.6,-0.4 -10.9,1.9c-1,0.7 -1.4,1.4 -1.1,2.5c0.1,0.4 0.1,0.8 0.2,1.2c0.8,6 1.6,12.1 1.1,18.2c0,0.3 0,0.7 0,0.9c4.3,1 7.9,0.1 10.7,-2.7c2.5,-2.5 4.2,-5.4 5.2,-8.7c1,-3.3 0.6,-6.5 -0.8,-9.6c-1,-1.8 -2.4,-3.1 -4.4,-3.7Z" style="fill:#bfb49d;fill-rule:nonzero;"/><path d="M76.095,138.317c7.8,0.5 15.6,0.9 23.3,1.3c6.7,-0.2 13.4,-0.5 20,-1.9c4.4,-0.9 8.6,-2.3 12.5,-4.4c3.7,-1.9 5.5,-4.8 5.3,-9.1c-0.3,-6 -0.9,-11.8 -2.1,-17.7c-0.9,-4.4 -1.8,-8.8 -3,-13.2c-1.1,-4.5 -2.5,-8.9 -3.8,-13.4c-0.7,-2.5 -3.7,-2.3 -0.6,-7.2c2,-3.2 4.1,-6.3 6.2,-9.4c4.1,-6.2 8.2,-12.3 11.5,-18.9c3.7,-7.5 6.5,-15.2 7,-23.6c0.2,-3.4 0,-6.7 -1.4,-9.8c-1.3,-2.9 -3.7,-4.4 -6.9,-4.1c-1.5,0.1 -2.9,0.6 -4.3,1.1c-5.3,1.9 -9.2,5.6 -12.6,9.9c-4.4,5.4 -7.6,11.6 -10.2,17.9c-3,7.2 -5.7,14.5 -8.6,21.7c-4.6,11.7 -3.7,6.7 -11.8,1.6c-1.9,-1.2 -4.1,-1.9 -6.4,-1.8c-3.2,0.1 -6.2,0.9 -9.2,1.8c-1.8,0.6 -3.6,1.4 -5.4,2c-2.3,0.8 -3.8,0.1 -4.7,-2.1c-0.2,-0.6 -0.4,-1.3 -0.6,-2c-1.5,-6.1 -3.5,-11.9 -5.9,-17.7c-3.2,-7.8 -6.5,-15.7 -11,-22.9c-2,-3.2 -4.3,-6 -7.2,-8.4c-2.1,-1.8 -4.4,-3.1 -7.1,-3.5c-5.5,-0.9 -9.2,0.9 -11.2,5.6c-0.7,1.6 -1.1,3.4 -1.3,5.1c-0.5,5.5 1,10.7 3.1,15.8c3.6,8.7 8.1,16.9 13.1,24.8c2,3.2 4,6.5 6,9.8c2.7,4.5 2.9,9.1 0.7,13.9c-1.4,3.1 -2.8,6.3 -4.2,9.3c-4.2,9 -7.6,18.3 -10.1,27.9c-0.5,2 -0.8,4.2 -1,6.2c-0.2,1.6 0.4,3 1.6,4c1.2,1.1 2.5,2.1 3.9,3c6.7,4.3 14.2,5.9 21.9,6.8c4.7,0.8 9.6,1.3 14.5,1.6Zm40.6,-22.9c-1.3,-0.1 -2.2,-1 -2.2,-2.2c0,-1.2 0.9,-2 2,-2.1c1.3,0 2.5,1 2.5,2.2c0,1.2 -1.1,2.1 -2.3,2.1Zm4.5,6.8c-1.2,0 -2.1,-0.8 -2.1,-2c0,-1.1 1,-2.1 2.1,-2.1c1,0 1.9,0.9 2,2c0,1.2 -0.9,2.1 -2,2.1Zm6.8,-11.7c0,1.1 -1,2 -2.1,2c-1.2,0 -2,-1 -1.9,-2.1c0.1,-1.1 0.9,-1.9 2,-1.9c1,0 2,0.9 2,2Zm-15.7,-46.4c1.6,-4.7 3.1,-9.5 4.8,-14.2c2.4,-6.6 5.3,-13.1 9.1,-19c2,-3.2 4.3,-6.2 7.3,-8.5c1.1,-0.8 2.3,-1.5 3.5,-2c2.3,-0.7 4.3,0.3 5.1,2.6c1.6,4.7 -1,11.5 -1,11.6c-1.9,5.4 -3.9,10.8 -6.3,16c-2.8,6 -6,11.8 -9.2,17.7c-1.7,3.2 -3.8,3.8 -7.2,2.7c-2.4,-0.7 -4.2,-2.2 -5.8,-4c-0.9,-0.9 -0.7,-2 -0.3,-2.9Zm-0.7,31.6c0.2,-0.2 0.3,-0.4 0.5,-0.6c1.8,-1.6 3.8,-0.8 5.6,-0.4c1.3,0.3 2.3,2.2 2.2,3.8c0,2.1 -1.2,3.8 -3,4.4c-1.9,0.6 -4.3,-0.3 -5.5,-1.9c-1,-1.4 -0.9,-3.7 0.2,-5.3Zm-40.2,27.1c3.8,3.5 10.4,3.6 14.5,0.4c-1.6,-4.4 -1.3,-9.1 -1.7,-13.7c0,-0.6 -0.2,-1.4 -0.6,-1.6c-1.9,-1 -2.7,-2.8 -3.8,-4.5c-0.4,-0.7 -0.8,-1.4 -1.1,-2.2c-1.1,-2.2 -0.3,-4.2 2.1,-4.7c2.6,-0.6 5.2,-0.9 7.9,-1c1.1,-0.1 2.3,0.5 3.2,1c1.3,0.7 1.9,2 1.8,3.5c-0.4,3.6 -1.3,6.9 -5.2,8.8c0.2,3.3 0.4,6.6 0.7,9.9c0.1,0.7 0.2,1.4 0.5,2c0.6,1.5 1.7,2.4 3.4,2.4c2.3,0.1 4.3,-0.6 5.6,-2.7c0.5,-0.7 1,-1.3 1.5,-1.9c0.9,-0.9 1.9,-1 2.8,-0.3c0.9,0.6 1.2,1.7 0.6,2.7c-3,5.6 -8.7,8 -14.1,5.7c-0.2,-0.1 -0.4,-0.1 -0.4,-0.1c-5.5,3.4 -11.2,4.6 -17.2,1.8c-2.7,-1.2 -4.7,-3.3 -6.4,-5.6c-0.3,-0.5 -0.6,-1.1 -0.7,-1.7c-0.2,-1.1 0.3,-2 1.2,-2.4c1,-0.4 2,0 2.7,0.9c0.9,1.1 1.7,2.3 2.7,3.3Zm-27.3,-83.4c-0.2,-0.7 -1.4,-6.8 0.3,-12c1.1,-3.4 4,-4.3 6.9,-2.2c2.2,1.6 4,3.8 5.4,6.1c2.9,4.7 5,9.7 6.9,14.9c1.4,3.7 2.8,7.4 4.3,11.1c1.2,3 0.8,4.7 -1.9,6.5c-8.4,5.5 -10.5,0.2 -10.6,0.1c-5.1,-7.6 -9.3,-15.5 -11.3,-24.5Zm0.6,74.1c-1.3,0 -2.3,-0.9 -2.3,-2.1c0,-1.2 1.4,-2.4 2.8,-2.4c1.2,0 2,0.9 2,2.1c0.1,1.3 -1.1,2.4 -2.5,2.4Zm5.6,7.1c-1.1,0 -1.9,-0.9 -1.9,-2c0,-1.1 0.9,-2.1 2,-2.1c1.1,0 2.1,1 2.1,2.1c0,1.2 -1,2 -2.2,2Zm3.3,-9.6c-1.4,0 -2.6,-1.2 -2.6,-2.4c0,-1.2 1.1,-2.1 2.4,-2c1.5,0.1 2.6,1.1 2.5,2.4c-0.1,1.2 -1,2.1 -2.3,2Zm2.9,-9.4c-1.8,-0.5 -2.7,-1.8 -2.9,-3.6c-0.2,-2 0.3,-3.8 2,-4.8c0.7,-0.4 1.8,-0.3 2.7,-0.4c1.6,-0.1 3,0.4 4.2,1.5c0.8,0.7 1.1,1.6 1,2.6c-0.3,3.3 -3.9,5.7 -7,4.7Z" style="fill:#bfb49d;fill-rule:nonzero;"/></g><path d="M59.795,62.517c1.5,-0.9 2.9,-1.8 4.2,-2.6c-2,-5.4 -3.7,-10.5 -5.7,-15.5c-1.5,-3.7 -3.4,-7.3 -5.3,-10.9c-1,-1.9 -2.4,-3.6 -4.3,-4.9c-0.2,0.2 -0.3,0.4 -0.4,0.6c-0.1,0.4 -0.2,0.8 -0.3,1.2c-0.5,3.2 -0.1,6.4 0.7,9.5c2,7.6 5.7,14.3 9.8,20.9c0.3,0.7 0.8,1.1 1.3,1.7Z" style="fill:#f5ced3;fill-rule:nonzero;"/><path d="M118.795,66.517c2,0.9 2.2,0.9 3.4,-1.1c5.1,-8.8 9.6,-17.9 13.2,-27.5c1.2,-3.1 1.9,-6.4 2.8,-9.6c0.3,-1.2 0.4,-2.5 -0.4,-3.9c-0.8,0.6 -1.4,1 -2.1,1.5c-3.1,2.5 -5.2,5.8 -7.1,9.2c-5.5,9.3 -8.7,19.6 -12,30c0.2,0.2 0.4,0.4 0.5,0.5c0.5,0.3 1.1,0.6 1.7,0.9Z" style="fill:#f5ced3;fill-rule:nonzero;"/><path d="M88.495,103.017c0.4,-1 0.6,-2 0.8,-3c-1.9,-0.5 -4,-0.3 -6.1,0.6c0.6,1 1.1,2 1.8,2.9c1.3,1.5 2.8,1.3 3.5,-0.5Z" style="fill:#f5ced3;fill-rule:nonzero;"/><path d="M36.195,144.517c0.4,-0.5 0.7,-1 1,-1.6c0.8,-1.4 0.7,-2.2 -0.4,-3.3c-1.5,-1.4 -3.3,-2.1 -5,-2.3c-3.5,0 -6.8,3.2 -6.7,6.3c0,1 0.4,1.9 1.3,2.4c1.1,0.5 2.2,0.8 3.2,1.2c1.7,0.7 3.3,0.2 4.7,-0.6c0.9,-0.3 1.4,-1.3 1.9,-2.1Z" style="fill:#4ebeb8;fill-rule:nonzero;"/><path d="M16.995,133.517c-2.6,-2.5 -5.8,-2.8 -9.2,-2.2c-0.6,0.1 -1.1,0.5 -1.6,0.7c1.2,3.7 7.8,8.5 14.4,10.4c0.2,-0.7 0.3,-1.4 0.7,-2c0.6,-1 0.4,-1.8 -0.4,-2.5c-1.2,-1.4 -2.5,-3 -3.9,-4.4Z" style="fill:#4ebeb8;fill-rule:nonzero;"/><path d="M7.295,155.617c-1.2,1.3 -2,3 -2.8,4.7c-0.6,1.3 -0.5,2.6 -0.2,4c0.5,1.9 0.8,2.2 2.7,1.5c5.3,-1.8 9.1,-5.2 10.8,-10.6c0.7,-2.1 1,-4.4 1.5,-6.5c-0.1,-0.1 -0.2,-0.2 -0.3,-0.4c-4.2,2 -8.5,3.8 -11.7,7.3Z" style="fill:#4ebeb8;fill-rule:nonzero;"/><g><g><path d="M65.995,118.617c-0.9,0.4 -1.4,1.3 -1.2,2.4c0.1,0.6 0.3,1.2 0.7,1.7c1.7,2.4 3.7,4.4 6.4,5.6c6,2.8 11.7,1.6 17.2,-1.8c0,0 0.2,0.1 0.4,0.1c5.4,2.3 11.1,-0.1 14.1,-5.7c0.6,-1 0.3,-2.1 -0.6,-2.7c-0.9,-0.7 -1.9,-0.6 -2.8,0.3c-0.6,0.6 -1.1,1.2 -1.5,1.9c-1.4,2 -3.3,2.7 -5.6,2.7c-1.7,-0.1 -2.8,-0.9 -3.4,-2.4c-0.3,-0.6 -0.4,-1.3 -0.5,-2c-0.3,-3.3 -0.5,-6.5 -0.7,-9.9c3.9,-1.9 4.8,-5.3 5.2,-8.8c0.2,-1.5 -0.5,-2.7 -1.8,-3.5c-1,-0.5 -2.2,-1.1 -3.2,-1c-2.6,0.1 -5.3,0.4 -7.9,1c-2.4,0.6 -3.2,2.5 -2.1,4.7c0.3,0.7 0.7,1.5 1.1,2.2c1,1.7 1.9,3.5 3.8,4.5c0.4,0.2 0.6,1 0.6,1.6c0.4,4.6 0.1,9.3 1.7,13.7c-4.1,3.3 -10.7,3.1 -14.5,-0.4c-1,-1 -1.8,-2.2 -2.7,-3.3c-0.7,-1 -1.7,-1.3 -2.7,-0.9Zm19,-15.1c-0.7,-0.9 -1.2,-1.9 -1.8,-2.9c2.1,-0.9 4.2,-1.1 6.1,-0.6c-0.3,1 -0.4,2.1 -0.8,3c-0.7,1.8 -2.2,2 -3.5,0.5Z" style="fill-rule:nonzero;"/><path d="M63.495,96.917c0.1,-1 -0.2,-1.9 -1,-2.6c-1.2,-1.1 -2.5,-1.6 -4.2,-1.5c-0.9,0.1 -2,0 -2.7,0.4c-1.8,1 -2.2,2.8 -2,4.8c0.2,1.8 1.1,3 2.9,3.6c3.1,1 6.7,-1.4 7,-4.7Z" style="fill-rule:nonzero;"/><path d="M116.995,103.017c1.8,-0.6 3,-2.3 3,-4.4c0,-1.6 -0.9,-3.5 -2.2,-3.8c-1.9,-0.5 -3.9,-1.2 -5.6,0.4c-0.2,0.2 -0.4,0.4 -0.5,0.6c-1.1,1.5 -1.2,3.9 -0.1,5.4c1.1,1.5 3.5,2.4 5.4,1.8Z" style="fill-rule:nonzero;"/><path d="M53.395,106.617c-1.2,-0.1 -2.3,0.9 -2.4,2c0,1.2 1.2,2.3 2.6,2.4c1.3,0 2.3,-0.8 2.3,-2c0,-1.3 -1,-2.3 -2.5,-2.4Z" style="fill-rule:nonzero;"/><path d="M45.195,109.117c-1.5,0 -2.9,1.1 -2.8,2.4c0,1.2 1,2.1 2.3,2.1c1.4,0 2.6,-1.1 2.6,-2.4c0,-1.2 -0.9,-2.1 -2.1,-2.1Z" style="fill-rule:nonzero;"/><path d="M116.495,111.117c-1.2,0 -2,0.9 -2,2.1c0,1.2 1,2.1 2.2,2.2c1.2,0.1 2.3,-0.9 2.3,-2.1c0,-1.2 -1.2,-2.2 -2.5,-2.2Z" style="fill-rule:nonzero;"/><path d="M50.395,116.517c-1.1,0 -2.1,1 -2,2.1c0,1.1 0.8,1.9 1.9,2c1.2,0 2.1,-0.8 2.1,-2c0.1,-1.1 -0.9,-2.1 -2,-2.1Z" style="fill-rule:nonzero;"/><path d="M121.095,118.217c-1.1,0 -2.1,1 -2.1,2.1c0,1.2 0.9,2 2.1,2c1.2,0 2,-0.9 2,-2.1c0,-1.1 -0.9,-2 -2,-2Z" style="fill-rule:nonzero;"/><path d="M123.895,110.417c-0.1,1.2 0.8,2.1 1.9,2.1c1.1,0 2.1,-0.9 2.1,-2c0,-1.1 -0.9,-2 -2.1,-2c-1,0 -1.8,0.8 -1.9,1.9Z" style="fill-rule:nonzero;"/></g><g><path d="M118.295,70.917c3.4,1.1 5.5,0.4 7.2,-2.7c3.2,-5.8 6.4,-11.6 9.2,-17.7c2.4,-5.2 4.4,-10.6 6.3,-16c0,-0.1 2.6,-7 1,-11.6c-0.8,-2.2 -2.8,-3.3 -5.1,-2.6c-1.3,0.4 -2.5,1.1 -3.5,2c-3,2.3 -5.3,5.3 -7.3,8.5c-3.8,6 -6.6,12.4 -9.1,19c-1.7,4.7 -3.2,9.5 -4.8,14.2c-0.3,1 -0.6,2.1 0.2,2.9c1.7,1.8 3.5,3.3 5.9,4Zm10.2,-35.8c2,-3.4 4.1,-6.7 7.1,-9.2c0.6,-0.5 1.3,-1 2.1,-1.5c0.8,1.3 0.7,2.6 0.4,3.9c-0.8,3.2 -1.6,6.5 -2.8,9.6c-3.5,9.6 -8.1,18.7 -13.2,27.5c-1.1,2 -1.3,2 -3.4,1.1c-0.6,-0.3 -1.2,-0.6 -1.8,-1c-0.2,-0.1 -0.3,-0.3 -0.5,-0.5c3.4,-10.3 6.6,-20.5 12.1,-29.9Z" style="fill-rule:nonzero;"/><path d="M65.895,63.817c2.7,-1.8 3.1,-3.4 1.9,-6.5c-1.5,-3.7 -2.9,-7.4 -4.3,-11.1c-1.9,-5.1 -4,-10.2 -6.9,-14.9c-1.4,-2.3 -3.2,-4.5 -5.4,-6.1c-2.9,-2.1 -5.8,-1.2 -6.9,2.2c-1.6,5.1 -0.4,11.2 -0.3,12c2,8.9 6.2,16.9 11.2,24.5c0.2,0.1 2.3,5.4 10.7,-0.1Zm-17.9,-33.3c0.1,-0.4 0.1,-0.8 0.3,-1.2c0.1,-0.2 0.2,-0.3 0.4,-0.6c1.9,1.2 3.3,2.9 4.3,4.9c1.9,3.6 3.8,7.1 5.3,10.9c2,5 3.8,10.1 5.7,15.5c-1.3,0.8 -2.7,1.7 -4.2,2.6c-0.5,-0.6 -1,-1.1 -1.4,-1.6c-4.1,-6.5 -7.8,-13.3 -9.8,-20.9c-0.8,-3.2 -1.1,-6.4 -0.6,-9.6Z" style="fill-rule:nonzero;"/><g><path d="M161.995,215.517c-4.3,-1.4 -8.6,-1.2 -12.7,1c-0.6,0.3 -1.2,0.6 -1.9,1c-0.1,-0.5 -0.3,-0.9 -0.3,-1.3c-1.3,-7.5 -2.7,-14.9 -3.9,-22.4c-1.9,-11.3 -3.6,-22.5 -4.7,-33.9c-0.6,-6.5 -1.4,-12.9 -2.1,-19.4c-0.1,-1.3 -0.2,-2.7 -1.4,-3.7c0.5,-0.3 0.8,-0.6 1.2,-0.8c3.9,-2.6 5.9,-6.2 5.7,-10.9c-0.2,-3.2 -0.4,-6.4 -0.6,-9.6c0,-0.7 -0.1,-1.4 -0.2,-2.5c1.6,0.9 2.9,1.6 4.2,2.4c5.4,3.5 10.7,7.1 16.1,10.7c0.6,0.4 1.2,0.9 1.9,1.2c1.1,0.5 2.1,0.3 2.7,-0.6c0.6,-0.8 0.4,-2 -0.4,-2.8c-0.2,-0.2 -0.5,-0.4 -0.8,-0.6c-7.1,-4.6 -14.1,-9.1 -21.2,-13.7c-0.3,-0.2 -0.5,-0.4 -1.1,-0.9c3.9,0.4 7.3,0.7 10.8,1.1c3.8,0.5 7.6,1.2 11.3,1.7c1.3,0.2 2.4,-0.5 2.7,-1.7c0.2,-1.1 -0.4,-2 -1.7,-2.5c-0.3,-0.1 -0.5,-0.2 -0.8,-0.2c-3.8,-0.6 -7.7,-1.2 -11.6,-1.7c-4.1,-0.5 -8.2,-0.8 -12.2,-1.3c-0.5,-0.1 -1.1,-0.3 -2,-0.5c1,-0.6 1.6,-1 2.2,-1.2c2.7,-1.3 5.4,-2.7 8.1,-3.9c5.6,-2.5 11.2,-5 16.9,-7.5c0.5,-0.2 1,-0.4 1.5,-0.7c1,-0.7 1.3,-1.7 0.9,-2.6c-0.4,-1 -1.3,-1.4 -2.6,-1.1c-0.5,0.1 -1,0.3 -1.5,0.6c-8.6,3.9 -17.1,7.8 -25.7,11.7c-0.2,0.1 -0.4,0 -0.7,0c-0.1,-0.5 -0.3,-0.9 -0.4,-1.4c-1.3,-7.1 -3,-14.2 -5.8,-20.9c-0.4,-0.9 -0.2,-1.5 0.3,-2.3c2.7,-4.1 5.4,-8.2 8.1,-12.3c4.4,-6.6 8.5,-13.4 11.6,-20.7c3.2,-7.6 5.4,-15.5 5.1,-23.9c-0.1,-3 -0.7,-6 -2.1,-8.7c-2.2,-4.3 -6.7,-6.7 -11.4,-6c-5.3,0.8 -9.8,3.2 -13.8,6.7c-3.6,3.2 -6.6,6.9 -9.2,10.9c-4.2,6.7 -7.4,13.9 -10.3,21.2c-2,5 -3.8,10 -5.7,14.9c-0.3,0.7 -0.6,1.3 -0.9,2c-1.7,-1.1 -3.1,-2.1 -4.5,-3c-2.7,-1.7 -5.6,-2.5 -8.8,-2.4c-2,0.1 -4.1,0.4 -6.1,0.9c-3.1,0.8 -6.1,1.8 -9.2,2.7c-0.1,-0.3 -0.2,-0.6 -0.3,-0.9c-2.1,-8.5 -5.3,-16.6 -8.8,-24.7c-2.5,-5.8 -5.2,-11.6 -8.6,-17c-2.5,-3.9 -5.5,-7.3 -9.2,-10.2c-3,-2.3 -6.4,-3.7 -10.2,-3.8c-4.8,-0.2 -9,1.3 -12,5.4c-3,4.2 -3.8,8.9 -3.4,13.8c0.4,4.5 1.6,8.9 3.3,13.1c3.7,9.1 8.4,17.6 13.6,25.9c2.2,3.6 4.3,7.3 6.4,11c1.2,2.2 1.4,4.5 0.4,6.9c-1,2.4 -2,4.8 -3,7.2c-1.5,3.4 -3,6.7 -4.6,10.2c-2.4,0.1 -4.8,0.3 -7.2,0.3c-5.6,0.1 -11.2,0 -16.8,0.2c-3,0.1 -6,0.4 -9,0.7c-1.4,0.1 -2.3,1.4 -2,2.6c0.2,1.2 1.2,1.8 2.7,1.6c3.5,-0.4 6.9,-0.8 10.4,-0.9c6.2,-0.2 12.5,-0.1 18.7,-0.2c0.4,0 0.9,0.1 1.3,0.2c-0.1,1 -0.7,1 -1.3,1.2c-2,0.6 -3.9,1.1 -5.9,1.8c-8.7,3 -17.4,6.1 -26.1,9.1c-0.6,0.2 -1.1,0.5 -1.6,0.9c-1.1,0.9 -1.4,1.9 -0.8,2.9c0.5,1 1.7,1.4 3,0.9c0.8,-0.3 1.6,-0.7 2.5,-1c8.5,-3 17,-6 25.5,-9c0.8,-0.3 1.6,-0.5 2.8,-0.8c-0.5,1.4 -0.9,2.5 -1.2,3.6c-0.3,1.2 -0.9,1.9 -2.1,2.5c-6.7,3.3 -13.4,6.8 -20.1,10.2c-0.7,0.3 -1.3,0.7 -1.9,1.2c-0.8,0.6 -0.9,1.8 -0.4,2.6c0.5,0.8 1.5,1.2 2.5,0.9c0.5,-0.2 1,-0.4 1.5,-0.7c5.4,-2.8 10.8,-5.5 16.3,-8.3c0.5,-0.3 1.1,-0.5 1.9,-0.9c-0.1,0.8 -0.2,1.4 -0.3,2c-0.3,1.5 -0.6,3.1 -0.8,4.6c-0.4,3.3 0.5,6.3 3,8.5c1.8,1.6 3.8,2.9 5.8,4.2c0.7,0.5 1.4,0.8 2.1,1.2c0.7,0.4 0.5,0.8 -0.1,1.3c-4.9,-4.1 -10.1,-5.7 -15.7,-1.5c-1.7,-1.8 -3.2,-3.5 -4.9,-5.1c-3.9,-3.7 -10.3,-4.8 -14.9,-2.6c-2.9,1.4 -3.9,3.8 -2.5,6.8c0.7,1.4 1.7,2.7 2.7,3.8c2.3,2.4 5.1,4.1 8,5.6c0.6,0.3 1.3,0.7 2.1,1.2c-0.9,0.5 -1.5,0.8 -2.1,1.2c-2.4,1.5 -4.9,2.9 -7.3,4.6c-2.9,2.1 -4.7,5 -5.8,8.3c-1,2.9 -0.7,5.7 0.6,8.4c1,2.1 2.9,3.2 5,2.9c4.6,-0.8 8.6,-2.8 11.8,-6.4c2.9,-3.4 4.5,-7.3 5.3,-11.6c0.2,-0.9 0.4,-1.8 0.6,-2.7c1.7,0.6 3.2,1.3 4.7,1.6c1.5,0.4 3.1,0.4 4.8,0.6c0.2,0.9 0.4,1.7 0.5,2.6c0.1,0.3 0.1,0.7 -0.1,1c-1.7,3.2 -2.2,6.7 -3,10.2c-1.7,7.5 -3.5,15 -5.1,22.6c-2.1,10.2 -4,20.4 -5.7,30.6c-1.1,6.3 -1.9,12.7 -2.3,19.1c-0.5,9.1 2.5,16.9 10.6,21.9c7,4.2 14.6,6.6 22.8,7.2c4,0.3 8,0.5 12.1,0.8c0.9,0.1 1.8,0.3 2.6,0.3c2.8,0.1 4.6,-1.3 5.4,-4.1c0.2,-0.6 0.4,-1.3 0.5,-1.9c2.3,0.1 4.5,0.2 6.6,0.3c3.1,0.2 6.1,0.3 9.2,0.5c4.3,0.3 8.6,0.7 12.9,-0.1c1.4,-0.3 2.8,-0.4 4.2,-0.6c0.2,0.5 0.3,0.8 0.3,1.1c0.8,3.2 2.3,4.3 5.5,4.8c2.3,0.4 4.5,0.1 6.7,0c5.3,-0.3 10.4,-1.5 15.5,-2.7c8.5,-2.1 13.7,-7.5 15.9,-15.9c0.1,-0.3 0.2,-0.6 0.3,-0.9c0.3,0 0.5,0 0.7,0c5.8,0.9 10.6,-0.9 14.6,-5.2c2.2,-2.4 3.8,-5.2 4.9,-8.2c1.7,-4.6 1.5,-9.1 -0.4,-13.6c-1.3,-3.1 -3.4,-5.3 -6.6,-6.3Zm-144.2,-60.2c-1.7,5.4 -5.5,8.8 -10.8,10.6c-1.9,0.6 -2.2,0.4 -2.7,-1.5c-0.3,-1.4 -0.4,-2.8 0.2,-4c0.8,-1.6 1.6,-3.4 2.8,-4.7c3.2,-3.5 7.5,-5.3 11.7,-7.3c0.1,0.1 0.2,0.2 0.3,0.4c-0.5,2.1 -0.8,4.3 -1.5,6.5Zm3.6,-14.8c-0.3,0.6 -0.4,1.3 -0.7,2c-6.6,-1.9 -13.3,-6.7 -14.4,-10.4c0.5,-0.2 1,-0.6 1.6,-0.7c3.4,-0.6 6.6,-0.3 9.2,2.2c1.4,1.4 2.6,2.9 4,4.4c0.7,0.7 0.9,1.4 0.3,2.5Zm18.1,-10.4c-1.4,-0.9 -2.7,-1.9 -3.9,-3c-1.2,-1 -1.8,-2.4 -1.6,-4c0.3,-2.1 0.5,-4.2 1,-6.2c2.5,-9.6 5.9,-18.9 10.1,-27.9c1.5,-3.1 2.8,-6.3 4.2,-9.3c2.2,-4.8 2,-9.4 -0.7,-13.9c-2,-3.3 -3.9,-6.6 -6,-9.8c-5,-8 -9.5,-16.2 -13.1,-24.8c-2.1,-5 -3.5,-10.2 -3.1,-15.8c0.2,-1.7 0.6,-3.5 1.3,-5.1c2,-4.7 5.7,-6.5 11.2,-5.6c2.7,0.4 5,1.8 7.1,3.5c2.8,2.4 5.2,5.2 7.2,8.4c4.5,7.2 7.8,15.1 11,22.9c2.4,5.8 4.4,11.6 5.9,17.7c0.2,0.7 0.4,1.3 0.6,2c0.9,2.3 2.4,3 4.7,2.1c1.8,-0.6 3.6,-1.4 5.4,-2c3,-1 6,-1.7 9.2,-1.8c2.3,-0.1 4.5,0.5 6.4,1.8c8.1,5.1 7.1,10.2 11.8,-1.6c2.9,-7.2 5.6,-14.5 8.6,-21.7c2.7,-6.4 5.9,-12.5 10.2,-17.9c3.4,-4.3 7.3,-8 12.6,-9.9c1.4,-0.5 2.9,-1 4.3,-1.1c3.2,-0.3 5.5,1.2 6.9,4.1c1.4,3.1 1.6,6.5 1.4,9.8c-0.5,8.4 -3.3,16.1 -7,23.6c-3.3,6.6 -7.4,12.8 -11.5,18.9c-2.1,3.1 -4.2,6.3 -6.2,9.4c-3.1,4.9 -0.1,4.8 0.6,7.2c1.3,4.5 2.6,8.9 3.8,13.4c1.1,4.4 2,8.8 3,13.2c1.2,5.8 1.9,11.7 2.1,17.7c0.2,4.3 -1.7,7.1 -5.3,9.1c-4,2.1 -8.2,3.5 -12.5,4.4c-6.6,1.4 -13.3,1.7 -20,1.9c-7.8,-0.4 -15.6,-0.8 -23.3,-1.3c-4.9,-0.3 -9.8,-0.8 -14.7,-1.4c-7.5,-1.1 -15,-2.7 -21.7,-7Zm13,22.2c-0.6,-0.5 -1.3,-0.8 -2,-1c-3.1,-1 -6.1,-1.9 -9.2,-2.8c-0.6,-0.2 -1.1,-0.4 -1.7,-0.6c0,-0.8 0.3,-1.1 1.1,-1.1c4,0.1 8.1,0.1 12.1,0.1c1.9,0 2.9,-0.7 3,-2.1c0,-1.3 -1,-2.1 -2.9,-2.1l-10.4,0c1.1,-1.8 1.9,-3.3 2.8,-4.8c2.8,0.7 5.4,1.5 8,2c5.9,1.2 11.8,2.1 17.8,2.4c8.3,0.5 16.5,1.1 24.8,1.4c5.2,0.2 10.5,-0.2 15.8,-0.5c6.3,-0.4 12.4,-1.8 18.4,-4.1c0.9,1.4 0.8,2.9 0.5,4.4c-0.8,3.4 -1.6,7 -2.8,10.3c-2.6,7 -5.8,13.7 -9.8,20c-2.6,4.1 -5.6,8 -9,11.4c-1.3,1.3 -2.8,2.4 -4.3,3.5c-2.3,1.5 -4.8,1.8 -7.4,0.7c-1.2,-0.5 -2.3,-1.1 -3.5,-1.8c-5.9,-3.3 -11.7,-6.8 -17.6,-10c-5.7,-3 -11.5,-5.8 -17.3,-8.4c-6.5,-3 -12.4,-6.9 -17.6,-11.8c-0.9,-0.9 -1.8,-1.9 -2.6,-2.9c-0.5,-0.6 -0.7,-1.4 -1.1,-2.1c0.1,-0.1 0.3,-0.2 0.4,-0.4c2.7,0.8 5.3,1.6 8,2.4c1.4,0.4 2.7,0.8 4.1,1.3c0.4,0.1 0.8,0.2 1.2,0.3c1,0.1 1.7,-0.4 2.1,-1.3c0,-1.1 -0.2,-1.9 -0.9,-2.4Zm-22.9,-5c-1.1,-0.4 -2.2,-0.8 -3.2,-1.2c-1,-0.4 -1.3,-1.3 -1.3,-2.4c0,-3.1 3.3,-6.4 6.7,-6.3c1.7,0.2 3.5,0.8 5,2.3c1.1,1.1 1.2,1.9 0.4,3.3c-0.3,0.5 -0.6,1.1 -1,1.6c-0.6,0.8 -1.1,1.9 -1.9,2.3c-1.4,0.5 -3,1 -4.7,0.4Zm114.9,101.1c-1.5,6.2 -5,10.8 -11.3,12.7c-6.3,1.9 -12.7,3 -19.3,3.5c-0.9,0.1 -1.9,-0.1 -2.9,-0.3c-1.5,-0.2 -1.8,-0.7 -1.9,-2.2c-0.1,-2.9 1.1,-5.4 3.1,-7.3c2,-1.9 4.3,-3.6 6.5,-5.3c0.6,-0.5 1.3,-0.8 1.8,-1.4c0.7,-0.7 0.7,-1.6 0.2,-2.5c-0.5,-0.8 -1.5,-1.1 -2.5,-0.8c-0.3,0.1 -0.6,0.3 -0.9,0.5c-3,1.8 -5.8,3.9 -8.1,6.5c-1.5,1.8 -2.7,3.9 -4.1,6c-5.8,1.5 -11.9,1.7 -18.1,1.1c-4.4,-0.4 -8.7,-0.6 -13.1,-0.8c-1.5,-0.1 -2.4,-0.4 -2.8,-2c-0.3,-1 -1,-2 -1.7,-2.8c-2.5,-2.5 -5.2,-4.9 -7.8,-7.3c-0.4,-0.3 -1,-0.6 -1.5,-0.7c-0.9,-0.1 -1.6,0.3 -2,1.1c-0.4,0.8 -0.3,1.7 0.3,2.3c1.1,1.1 2.3,2.2 3.4,3.2c1.1,1 2.1,2 3.2,2.9c2.2,1.9 2.7,4.3 2.2,7c-0.1,0.5 -0.3,1.1 -0.5,1.8c-0.9,0 -1.7,0.1 -2.6,0c-3.5,-0.2 -6.9,-0.7 -10.4,-0.7c-7.5,-0.2 -14.5,-2.2 -21.2,-5.5c-7.3,-3.6 -10.6,-9.7 -10.7,-17.5c0,-4.8 0.5,-9.7 1.3,-14.5c1.7,-10.7 3.6,-21.3 5.7,-31.9c1.5,-7.4 3.4,-14.8 5.1,-22.2c0.7,-3 1.2,-6 1.8,-9c0.2,-1.1 0.6,-2.1 1,-3.4c1.1,1 2.1,1.8 3,2.7c3.6,3.4 7.6,6.3 12,8.5c3.5,1.8 7.1,3.4 10.7,5.1c9.6,4.4 18.8,9.7 27.9,15.1c1.7,1 3.4,2 5.3,2.8c4,1.8 7.9,1.2 11.5,-1.1c2.9,-1.8 5.3,-4.3 7.6,-6.8c6.1,-6.9 10.5,-14.8 14.2,-23.2c1.4,-3.1 2.6,-6.3 4.1,-9.8c0.3,2.3 0.6,4.2 0.8,6.2c1.7,17.2 4.5,34.2 7.7,51.1c1.6,8.5 3,17 3.7,25.6c0.3,4.5 0.3,8.9 -0.7,13.3Zm20.9,-15.5c-1,3.3 -2.7,6.3 -5.2,8.7c-2.8,2.8 -6.4,3.7 -10.7,2.7c0,-0.3 0,-0.6 0,-0.9c0.4,-6.1 -0.4,-12.2 -1.1,-18.2c-0.1,-0.4 -0.1,-0.8 -0.2,-1.2c-0.3,-1.2 0.2,-1.9 1.1,-2.5c3.4,-2.3 7,-3 10.9,-1.9c2,0.6 3.5,1.9 4.3,3.8c1.5,3 1.8,6.2 0.9,9.5Z" style="fill-rule:nonzero;"/><path d="M64.768,185.129l0.352,0.015l0.12,0.007l0.278,-0.095l0.411,-0.131l0.426,-0.128l0.442,-0.123l0.461,-0.119l0.483,-0.113l0.502,-0.106l0.474,-0.088l0.321,-0.053l0.276,-0.043l0.284,-0.04l0.292,-0.037l0.297,-0.033l0.301,-0.03l0.309,-0.025l0.319,-0.022l0.327,-0.017l0.33,-0.012l0.341,-0.007l0.346,-0.001l0.354,0.005l0.363,0.011l0.368,0.019l0.383,0.026l0.384,0.034l0.39,0.042l0.399,0.051l0.41,0.062l0.414,0.071l0.421,0.081l0.429,0.094l0.432,0.104l0.439,0.117l0.445,0.129l0.448,0.143l0.451,0.156l0.458,0.171l0.456,0.184l0.457,0.199l0.461,0.215l0.458,0.228l0.455,0.243l0.455,0.259l0.452,0.274l0.445,0.288l0.417,0.286l0.029,0.007l0.558,0.159l0.553,0.178l0.546,0.197l0.539,0.215l0.531,0.234l0.523,0.251l0.515,0.27l0.504,0.286l0.495,0.304l0.484,0.321l0.473,0.336l0.461,0.353l0.448,0.368l0.436,0.384l0.423,0.398l0.408,0.412l0.395,0.426l0.311,0.361l0.035,0.014l0.248,0.098l0.251,0.098l0.254,0.097l0.255,0.097l0.259,0.097l0.262,0.097l0.263,0.095l0.266,0.096l0.267,0.095l0.27,0.095l0.271,0.094l0.273,0.094l0.275,0.093l0.276,0.093l0.278,0.093l0.279,0.091l0.28,0.092l0.281,0.091l0.274,0.088l0.578,0.183l0.401,0.126l0.049,0.01l0.095,0.018l0.122,0.023l0.15,0.026l0.176,0.031l0.205,0.035l0.486,0.081l0.284,0.049l0.311,0.054l0.337,0.06l0.362,0.067l0.39,0.076l0.39,0.079l0.239,0.051l0.223,0.049l0.232,0.052l0.237,0.056l0.243,0.058l0.249,0.062l0.255,0.066l0.262,0.07l0.269,0.075l0.275,0.079l0.281,0.083l0.286,0.089l0.292,0.094l0.298,0.099l0.303,0.105l0.308,0.111l0.314,0.117l0.319,0.124l0.324,0.131l0.327,0.138l0.332,0.145l0.337,0.152l0.339,0.161l0.415,0.203l0.473,0.247l0.541,0.306l0.542,0.332l0.532,0.352l0.517,0.37l0.504,0.388l0.496,0.411l0.475,0.424l0.458,0.437l0.441,0.453l0.423,0.465l0.398,0.471l0.378,0.478l0.358,0.487l0.334,0.486l0.314,0.491l0.29,0.487l0.266,0.481l0.251,0.487l0.228,0.476l0.207,0.468l0.191,0.465l0.173,0.456l0.156,0.446l0.141,0.437l0.126,0.428l0.112,0.418l0.1,0.408l0.087,0.394l0.093,0.468l0.109,0.652l0.089,0.698l0.061,0.659l0.036,0.621l0.017,0.583l-0.001,0.551l-0.014,0.52l-0.026,0.49l-0.035,0.464l-0.042,0.437l-0.049,0.414l-0.054,0.394l-0.058,0.376l-0.061,0.355l-0.063,0.337l-0.065,0.321l-0.066,0.309l-0.068,0.295l-0.068,0.28l-0.068,0.269l-0.069,0.258l-0.068,0.246l-0.067,0.236l-0.067,0.226l-0.075,0.247l-0.118,0.375l-0.124,0.373l-0.117,0.341l-0.109,0.307l-0.1,0.275l-0.093,0.25l-0.126,0.335l-0.055,0.145l-0.095,0.274l-0.13,0.381l-0.285,0.842l-0.151,0.445l-0.161,0.472l-0.17,0.494l-0.176,0.501l-0.101,0.281l-0.099,0.273l-0.102,0.28l-0.106,0.284l-0.11,0.29l-0.115,0.298l-0.118,0.302l-0.123,0.308l-0.129,0.314l-0.133,0.319l-0.138,0.324l-0.144,0.33l-0.15,0.335l-0.156,0.34l-0.163,0.345l-0.168,0.35l-0.176,0.354l-0.182,0.358l-0.19,0.362l-0.198,0.366l-0.205,0.369l-0.212,0.372l-0.221,0.375l-0.229,0.377l-0.221,0.353l-0.138,0.216l-0.124,0.19l-0.127,0.192l-0.128,0.191l-0.13,0.19l-0.134,0.193l-0.134,0.191l-0.136,0.191l-0.14,0.192l-0.142,0.192l-0.143,0.191l-0.146,0.192l-0.147,0.19l-0.15,0.19l-0.153,0.191l-0.154,0.19l-0.156,0.189l-0.159,0.189l-0.16,0.188l-0.163,0.187l-0.166,0.189l-0.167,0.186l-0.168,0.185l-0.172,0.185l-0.173,0.184l-0.174,0.182l-0.177,0.182l-0.179,0.181l-0.181,0.179l-0.183,0.18l-0.185,0.178l-0.185,0.175l-0.189,0.176l-0.19,0.174l-0.192,0.173l-0.192,0.17l-0.196,0.171l-0.197,0.169l-0.198,0.167l-0.2,0.166l-0.202,0.164l-0.202,0.162l-0.204,0.162l-0.206,0.16l-0.207,0.158l-0.249,0.186l-0.348,0.254l-0.389,0.273l-0.389,0.261l-0.391,0.253l-0.39,0.243l-0.39,0.231l-0.391,0.224l-0.391,0.216l-0.391,0.206l-0.392,0.198l-0.392,0.191l-0.392,0.183l-0.392,0.175l-0.394,0.169l-0.393,0.161l-0.395,0.155l-0.396,0.148l-0.395,0.141l-0.396,0.135l-0.398,0.128l-0.399,0.123l-0.4,0.116l-0.401,0.11l-0.402,0.105l-0.405,0.098l-0.405,0.092l-0.408,0.087l-0.409,0.081l-0.41,0.074l-0.413,0.069l-0.414,0.063l-0.418,0.057l-0.418,0.05l-0.421,0.045l-0.424,0.038l-0.427,0.032l-0.428,0.026l-0.431,0.019l-0.435,0.012l-0.437,0.005l-0.44,-0.001l-0.443,-0.009l-0.446,-0.016l-0.45,-0.024l-0.453,-0.032l-0.456,-0.039l-0.459,-0.049l-0.464,-0.056l-0.465,-0.066l-0.431,-0.069l-0.275,-0.048l-0.236,-0.043l-0.237,-0.046l-0.24,-0.049l-0.239,-0.051l-0.24,-0.053l-0.242,-0.057l-0.24,-0.059l-0.244,-0.062l-0.244,-0.065l-0.243,-0.067l-0.245,-0.07l-0.245,-0.074l-0.247,-0.076l-0.247,-0.08l-0.247,-0.082l-0.249,-0.086l-0.249,-0.089l-0.249,-0.092l-0.249,-0.096l-0.109,-0.043l-0.075,-0.014l-0.306,-0.058l-0.351,-0.069l-0.364,-0.076l-0.24,-0.053l-0.224,-0.051l-0.236,-0.056l-0.249,-0.061l-0.262,-0.067l-0.274,-0.073l-0.286,-0.08l-0.298,-0.087l-0.314,-0.097l-0.324,-0.104l-0.338,-0.115l-0.355,-0.127l-0.367,-0.138l-0.381,-0.151l-0.396,-0.167l-0.411,-0.183l-0.424,-0.199l-0.437,-0.219l-0.452,-0.24l-0.464,-0.261l-0.476,-0.285l-0.487,-0.312l-0.496,-0.337l-0.302,-0.22l-0.083,-0.035l-0.258,-0.111l-0.288,-0.125l-0.316,-0.141l-0.344,-0.157l-0.375,-0.178l-0.37,-0.182l-0.243,-0.124l-0.22,-0.114l-0.229,-0.122l-0.237,-0.129l-0.244,-0.136l-0.252,-0.145l-0.26,-0.154l-0.266,-0.162l-0.274,-0.172l-0.221,-0.143l-0.657,-0.432l-0.6,-0.393l-0.602,-0.392l-0.604,-0.391l-0.605,-0.39l-0.606,-0.388l-0.605,-0.386l-0.606,-0.383l-0.604,-0.379l-0.603,-0.376l-0.6,-0.371l-0.604,-0.371l-0.291,-0.177l-0.297,-0.181l-0.295,-0.178l-0.295,-0.177l-0.293,-0.176l-0.292,-0.174l-0.291,-0.172l-0.321,-0.189l-0.202,-0.12l-0.231,-0.138l-0.225,-0.137l-0.221,-0.136l-0.219,-0.137l-0.213,-0.135l-0.21,-0.134l-0.221,-0.142l-0.383,-0.251l-0.386,-0.256l-0.37,-0.251l-0.357,-0.244l-0.342,-0.238l-0.329,-0.23l-0.315,-0.222l-0.305,-0.217l-0.556,-0.396l-0.522,-0.373l-0.234,-0.166l-0.225,-0.159l-0.21,-0.147l-0.198,-0.137l-0.184,-0.127l-0.17,-0.114l-0.156,-0.104l-0.16,-0.105l-0.049,-0.031l-0.061,-0.039l-0.058,-0.036l-0.053,-0.033l-0.05,-0.031l-0.047,-0.028l-0.042,-0.025l-0.037,-0.022l-0.033,-0.019l-0.029,-0.017l-0.026,-0.014l-0.02,-0.011l-0.016,-0.009l-0.011,-0.006l-0.008,-0.004l-0.144,-0.072l-0.329,-0.171l-0.416,-0.228l-0.369,-0.214l-0.339,-0.203l-0.316,-0.198l-0.302,-0.195l-0.292,-0.195l-0.285,-0.195l-0.281,-0.199l-0.28,-0.203l-0.281,-0.209l-0.282,-0.216l-0.287,-0.226l-0.291,-0.236l-0.297,-0.248l-0.307,-0.265l-0.315,-0.281l-0.327,-0.303l-0.341,-0.328l-0.319,-0.32l-0.219,-0.227l-0.189,-0.201l-0.194,-0.213l-0.202,-0.228l-0.207,-0.24l-0.214,-0.256l-0.221,-0.273l-0.228,-0.294l-0.237,-0.316l-0.241,-0.338l-0.252,-0.368l-0.261,-0.403l-0.266,-0.436l-0.274,-0.479l-0.28,-0.527l-0.283,-0.579l-0.286,-0.644l-0.28,-0.707l-0.272,-0.787l-0.256,-0.875l-0.227,-0.967l-0.184,-1.065l-0.126,-1.172l-0.045,-1.217l0.038,-1.216l0.144,-1.369l0.145,-0.742l0.093,-0.443l0.104,-0.441l0.116,-0.438l0.128,-0.435l0.002,-0.007l0.167,-0.511l0.183,-0.506l0.198,-0.499l0.214,-0.494l0.003,-0.006l0.219,-0.463l0.232,-0.457l0.246,-0.449l0.26,-0.442l0.272,-0.433l0.004,-0.006l0.279,-0.416l0.292,-0.408l0.304,-0.4l0.315,-0.39l0.327,-0.38l0.338,-0.371l0.004,-0.005l0.365,-0.377l0.377,-0.366l0.387,-0.354l0.399,-0.342l0.409,-0.33l0.418,-0.316l0.005,-0.004l0.456,-0.322l0.467,-0.308l0.476,-0.292l0.486,-0.276l0.495,-0.26l0.503,-0.244l0.005,-0.002l0.468,-0.209l0.474,-0.195l0.48,-0.18l0.486,-0.166l0.49,-0.151l0.494,-0.136l0.006,-0.002l0.548,-0.132l0.263,-0.055l0.146,-0.332l0.249,-0.519l0.266,-0.511l0.283,-0.501l0.3,-0.491l0.001,-0.001l0.306,-0.465l0.322,-0.456l0.336,-0.444l0.35,-0.433l0.365,-0.422l0.378,-0.409l0.391,-0.397l0.404,-0.384l0.417,-0.37l0.428,-0.356l0.44,-0.342l0.451,-0.328l0.461,-0.313l0.471,-0.297l0.481,-0.282l0.49,-0.265l0.498,-0.25l0.506,-0.233l0.514,-0.217l0.52,-0.199l0.527,-0.182l0.532,-0.165l0.537,-0.148l0.007,-0.001l0.544,-0.131l0.549,-0.112l0.552,-0.094l0.554,-0.076l0.557,-0.058l0.589,-0.051l0.86,-0.016l0.458,0.004l0.361,0.009Zm-28.908,31.932l0.009,0.032l-0.013,-0.048l0.004,0.016Zm54.267,0.02l-0.068,-0.066l-0.011,-0.011l0.079,0.077Zm-54.55,-1.197l0.086,0.358l-0.071,-0.333l-0.085,-0.475l0.07,0.45Zm-0.23,-1.472l0.117,0.753l-0.057,-0.402l-0.063,-0.577l-0.044,-0.579l0.047,0.805Zm27.719,-16.116l-0.168,0.586l0.167,-0.518l0.194,-0.539l-0.193,0.471Zm0.689,-1.683l-0.196,0.478l0.152,-0.344l0.23,-0.478l-0.186,0.344Zm0.813,-1.507l-0.125,0.232l0.075,-0.133l0.183,-0.298l-0.133,0.199Zm0.871,-1.299l-0.036,0.054l0.055,-0.078l-0.019,0.024Zm-9.303,-3.253l-0.056,0.055l0.162,-0.15l-0.106,0.095Zm0.914,-0.828l-0.308,0.279l0.266,-0.228l0.201,-0.167l-0.159,0.116Z" style="fill:#bfb49d;"/></g></g></g><path d="M129.995,139.117c-6,2.3 -12.1,3.8 -18.4,4.1c-5.3,0.3 -10.5,0.6 -15.8,0.5c-8.3,-0.2 -16.5,-0.9 -24.8,-1.4c-6,-0.4 -12,-1.2 -17.8,-2.4c-2.7,-0.6 -5.3,-1.3 -8,-2c-0.9,1.5 -1.7,3 -2.8,4.8l10.4,0c1.9,0 2.9,0.8 2.9,2.1c0,1.3 -1,2.1 -3,2.1c-4,0 -8.1,0 -12.1,-0.1c-0.8,0 -1.1,0.3 -1.1,1.1c0.6,0.2 1.2,0.4 1.7,0.6c3.1,0.9 6.1,1.9 9.2,2.8c0.7,0.2 1.4,0.5 2,1c0.7,0.5 1,1.3 0.6,2.2c-0.4,0.9 -1.1,1.4 -2.1,1.3c-0.4,0 -0.8,-0.2 -1.2,-0.3c-1.4,-0.4 -2.7,-0.8 -4.1,-1.3c-2.7,-0.8 -5.3,-1.6 -8,-2.4c-0.1,0.1 -0.3,0.2 -0.4,0.4c0.4,0.7 0.6,1.5 1.1,2.1c0.8,1 1.7,2 2.6,2.9c5.2,4.9 11.1,8.8 17.6,11.8c5.8,2.7 11.6,5.4 17.3,8.4c6,3.2 11.8,6.7 17.6,10c1.1,0.6 2.3,1.2 3.5,1.8c2.6,1.2 5.1,0.9 7.4,-0.7c1.5,-1 3,-2.2 4.3,-3.5c3.5,-3.4 6.4,-7.2 9,-11.4c4,-6.3 7.2,-13 9.8,-20c1.2,-3.3 2,-6.8 2.8,-10.3c0.6,-1.3 0.7,-2.8 -0.2,-4.2Zm-5.7,12.7c-4.4,10.8 -10.3,20.5 -17.8,29.4c-2,2.3 -5.4,-1.1 -3.4,-3.4c7,-8.2 12.5,-17.3 16.6,-27.3c1.2,-2.8 5.8,-1.5 4.6,1.3Z" style="fill:#4ebeb8;fill-rule:nonzero;"/></g></svg>